<svg xmlns="http://www.w3.org/2000/svg" width="297mm" height="210mm" fill-rule="evenodd" clip-rule="evenodd" image-rendering="optimizeQuality" shape-rendering="geometricPrecision" text-rendering="geometricPrecision" viewBox="0 0 29700 21000"><defs><style>.fil0{fill:#008c28}.fil4{fill:#030303}.fil5{fill:#050505}.fil3{fill:#070707}.fil2{fill:#080808}.fil6{fill:#0a0a0a}.fil7{fill:#0c0c0c}.fil8{fill:#0f0f0f}.fil9{fill:#f7f7f7}.fil10{fill:#fbfbfb}</style></defs><g id="Camada_x0020_1"><g id="_2824514763808"><path d="M8276.03 6144.08c-.02 589.2-.1 1178.37.12 1767.54 0 79.56 1.45 158.68 22.62 236.82 35.15 130 99.12 242.1 194.52 336.92 127 126.3 253.36 253.3 380.03 379.96 337.8 337.8 675.5 675.63 1013.38 1013.37 22.5 22.45 44.36 45.93 68.88 66.02 41.23 33.8 86.37 34.08 118.62 3.7 32.8-30.97 33.23-75.83-1.88-117.15-23.15-27.2-49.54-51.7-74.86-76.98-442.36-441.53-884.77-882.98-1327.1-1324.54-30.92-30.95-62.12-61.8-91.33-94.35-193.25-215.57-177.7-562.47 22.34-759.5 206.1-202.97 525.73-220.22 749.4-35.43 33.64 27.8 64.12 59.56 95.05 90.5 492.78 492.45 984.98 985.5 1478.32 1477.35 117.63 117.3 64.9 96.65 237.5 96.9 1065.84 1.46 1984.87 706.64 2262.76 1735.9 53.3 197.44 77.14 398.5 78.32 601.87 2.53 429.92.76 859.82.76 1289.77 0 11.9.3 23.93-.2 35.84-2.35 58.8-11.7 68-73.68 57.7-90.24-15.1-180.34-31.33-269.68-50.92-1643.42-360.67-3024.3-1170.06-4133.12-2435.46-856.8-977.74-1416.64-2108-1691.48-3378.17C7246 6649 7192.24 6230.97 7178.8 5808c-16.45-517.4-2.58-1034.82-8.53-1552.2-3.12-272 223.1-508.3 496.74-533.83 267.13-24.95 528.57 155.47 591.05 417.3 14.87 62.27 18.46 125.5 18.4 189.57-.7 605.1-.4 1210.15-.4 1815.24zm7688.7 6782.05c-20.32-27.62-14-56.42-14-83.7-.4-437.84-3.48-875.72.32-1313.6 9.92-1132.17 789.22-1992.64 1730.05-2243.63 193.1-51.5 389.48-79.66 589.6-79.6 35.84 0 71.78-1.62 107.47.32 39.06 2.1 69.16-11.8 94.3-40.95 15.54-18.05 33.46-34.03 50.4-50.9 320.9-320.93 641.73-641.85 962.7-962.73 191.4-191.33 381.4-384.15 575-573.27 162.22-158.56 357.02-208.1 571.98-135.84 215.16 72.3 339.84 230.63 373.78 454.16 23.98 157.47-22.03 299.6-121.7 423.4-24.83 30.86-54.35 58.1-82.48 86.2-453.04 453.33-906.33 906.5-1359.32 1359.8-25.3 25.3-51.6 50.2-72.5 78.84-25.47 34.85-17.34 81.3 13.53 107.75 26.23 22.47 68.94 25 99.64 2.75 19.18-13.86 36.06-31.25 52.9-48.13 473-472.75 945.74-945.8 1418.78-1418.47 151.73-151.54 222.55-334.88 222.5-548.25-.4-1186.32-.2-2372.62-.08-3558.9 0-47.75-.54-95.63 2.22-143.28 16.52-291.2 257.1-520.8 552.14-518.37 346.74 2.88 545.58 278.53 551.54 518.47.46 19.9 1.46 39.8 1.46 59.67-.83 465.74 5.2 931.6-4.02 1397.2-17.38 875.73-191.5 1721.9-511.15 2537-417.87 1065.7-1045.5 1990.93-1883.18 2770.9-1006.87 937.52-2182.7 1557.95-3526.73 1856.76-97.06 21.58-194.66 40.62-292.2 60.04-34.6 6.88-69.6 14.54-102.98 6.33z" class="fil0"/><path fill="#00598c" d="M13107.12 5337.54c73.17-97.8 168.56-174.8 271.12-243.76 109.75-73.74 229.24-127.45 354.65-168.04 409.55-132.6 827.75-188.65 1258.5-149.6 275.1 25 542.3 80.95 801.7 174.72 174.3 62.95 330 157.02 465 284.42 34.3 32.4 69.74 64.27 96.74 116.9-21.1 17.25-43.4 33.92-63.83 52.6-339.33 310.58-503.02 699.22-505.1 1156.02-2.6 572.97-.67 1146-.67 1719.02 0 477.48-1.3 955.02 1.48 1432.5.38 72.42-19.7 126.33-66.5 182.12-325.6 389-514.3 836.63-564.8 1342.36a3094.97 3094.97 0 00-15.3 309.72c.4 449.67.53 899.33 0 1348.92-.2 145.72 15.03 126.5-123.33 136.24-214.83 15.08-429.3 10.47-643.83-3.62-55.92-3.7-62.07-10-63.92-62.65-1.08-31.77-.4-63.63-.4-95.5 0-449.63-1.63-899.25.5-1348.92 1.7-367.37-67-719.2-217.85-1054.58-91.96-204.37-206.26-395.36-353.46-564.33-53.86-61.76-71.7-124.77-71.42-204.9 2.43-764 1.44-1528 1.44-2292.03 0-290.45.5-580.94-.14-871.43-.85-363.8-116.5-687.2-347.9-967.7-50.4-61.1-110.34-114.32-166.17-170.94-16.44-16.63-39.2-27.7-46.5-57.5zm-498.96 4153.8c-50.65-31.24-80.63-49.64-110.5-68.22-336.6-209.43-700.8-336.57-1096.8-371.14-79.4-6.92-158.43-16.6-238.12-12.6-50.8 2.6-93.86-7.62-126.3-50.1-11.95-15.7-27.86-28.3-41.92-42.4-436.2-436.15-872.33-872.32-1308.5-1308.5-14.04-14.04-27.03-29.5-42.4-41.94-37.14-30.05-48.58-67.3-48.23-115.14 2.35-326.34-3.1-652.73 3.8-978.94 11.86-563.92 359.5-1045.3 889.94-1239.6 274.17-100.4 557.96-155.85 849.6-176.9 435.27-31.42 856.53 30.9 1267.02 174.63 75.2 26.3 147.9 58.7 216.1 100.15 26.35 16.05 29.38 30.66 14.22 59.45-9.27 17.58-20.28 34.23-30 51.6-132.57 237.87-197.8 493.26-197.8 765.34-.14 1034.66-.1 2069.33-.14 3104.02 0 43.2 0 86.4 0 150.28zm7249.17-2518.48c0 163.14-1.4 326.36.72 489.52.72 54.9-13.18 97.36-53.64 137.7-462.33 460.76-923.73 922.43-1382.83 1386.36-45.14 45.57-92.1 52.44-149.37 53.07-430 4.85-833.88 109.6-1209.06 321.1-58.9 33.16-115.76 69.9-174.43 103.36-16.4 9.37-32.5 1.05-33.9-17.97-2.92-39.6-3.34-79.38-3.34-119.1-.17-999.03.37-1998-.57-2997.04-.16-175.27-11.66-349.6-60.7-519.77-37.73-130.86-90.45-254.43-159.3-371.78-31.42-53.7-29-58.62 27.67-90.6 76.47-43.2 157.02-77.68 240.2-104.88 397.45-130.02 803.9-188.3 1222.65-156.92 283.5 21.22 560.1 73.13 826.75 171.07 483.8 177.62 777.13 522.54 885.66 1024.9 18.42 85.55 23.8 173.3 23.57 261.1-.32 143.3-.04 286.6-.04 429.9zm-9309.3-3573.98c5.56-300.43 44.53-538 144.23-763.5 45.37-102.52 103.47-197 178.2-280.65 165.3-185.06 377.15-272.5 620.38-291.67 119.77-9.45 238.63.47 354.96 30.32 221.7 56.86 393.42 184.4 519.4 374.56 88.98 134.23 147.12 281.87 181.47 438.12 49.76 226.36 74.6 454.6 37.02 686.34-47.47 293.1-161.03 555.85-354.16 782.5-80.63 94.63-174.44 174.4-284.4 233.1-251.22 134.13-502.53 131.57-751.48-5.8-138.17-76.2-249.5-183.83-341.2-310.9-203.97-282.72-306.7-598.6-304.43-892.42zm3154.62-351.35c1.75-204.36 32.5-403.75 98.18-597.42 37.24-109.7 86.8-213.4 154.2-307.94 129.74-182.03 300.83-302.92 520.63-352.38 190-42.75 379.6-40.07 565.67 15.13 219.44 65.05 383.3 204.37 500.9 399.3 95.85 158.73 150 332.4 181.84 513.8 47.4 270.03 45.33 537.93-38.1 801.74-69.16 218.8-173.94 417.7-331.72 586.4-87.7 93.76-186.56 172.77-304.35 225.93-228.5 103.13-454.98 97.4-677.67-16.68-159.34-81.64-283.48-203.96-384.06-349.88-190.33-276.04-288.83-581.4-285.52-917.97zm4194.67-972.43c92.68 3.85 179.4 7 265.48 27.87 214.25 52 383.7 167.95 511.6 346.13 96.43 134.23 158.06 284.15 196.87 443.9 68.5 281.8 88.48 564.98 16.93 849.4-64.1 254.7-177.45 484.1-357.35 678.07-79 85.24-168.34 157.82-272.52 209.88-232.3 116.12-466.2 117.65-699.3 2.72-123.07-60.6-227.1-146.9-314.07-252.08-230.67-279-354.1-600-363.66-962.4-6.37-244.63 29.47-483.23 118.05-712.6 36.06-93.18 81.75-181.1 140.93-261.58 162.74-221.27 381.58-342.1 655.2-363.9 35.62-2.83 71.4-3.83 101.84-5.44zm-4893.94 3414.96c69.12 40.53 122.1 100.32 173.58 160.46 215.52 251.78 323.26 545.03 326.3 875.66 2.5 274.57.53 549.18.53 823.76 0 1038.63 0 2077.27 0 3115.92 0 42.7 0 85.35 0 128.74-28.77-2.66-31.3-24.24-38.76-41.44-144.76-333.43-351.74-622.7-622.1-865.3-48.5-43.54-69.4-87-69.26-152.9 1.94-1110.32.95-2220.57 1.8-3330.88.18-227.12 58.87-440.32 167.58-639.63 11.37-20.83 25.13-40.42 39.1-59.7 4.27-5.96 12.67-8.96 21.2-14.7zM15952 10583.68c0-33.6 0-63.93 0-94.2 0-1312.87-.6-2625.73.4-3938.57.3-388.75 137-722.44 416.72-994.74 89.9-87.6 94.43-85.1 155.87 29.57 115.63 215.77 158.34 448.2 159.37 690.18.72 163.1.15 326.24.15 489.36 0 907.05 0 1814.12 0 2721.2 0 19.88-1.8 39.97.4 59.62 5.86 52.04-13.82 89.03-53.68 123.74-274.37 238.58-482.48 526.7-631.77 857.8-9.2 20.36-13.5 44.38-47.5 56.08z"/><path d="M20996.94 7481c-293.5-268.48-607.9-307.76-942.58-117.4-31.46-12.85-23.06-35.47-25.46-53.42-1.57-11.7-.44-23.8-.44-35.77-2.22-887.37-4.56-1774.76-6.2-2662.15-.08-43.6 3.67-87.4 8.45-130.77 24.98-225.88 242.53-439.78 524.3-418.84 245.3 18.2 444.48 220.33 455.4 469.93.68 15.9.23 31.83.23 47.76-.1 931.23 0 1862.5-.53 2793.72-.1 30.66 7.25 62.47-13.16 106.95zm-11565.7-92.5c-119.46-73.95-224.28-119-339.8-136-117.03-17.23-229.7-.36-340.37 37.32-109.36 37.25-201.77 103.27-283.07 181.35-26.6-23.9-19.9-44.7-19.9-63.12-.4-950.5-1.02-1900.96.08-2851.45.3-231.73 141.98-416.66 358.78-478.2 297.33-84.3 601.93 130 622.3 438.28 2.1 31.7 1.9 63.6 1.9 95.43.12 886.85.07 1773.74.07 2660.57 0 31.52 0 63.04 0 115.83z" class="fil0"/><path d="M9017.14 15842.07c.36-27.63 3.17-55.62.77-83.15-27.7-313.57-20.37-627.93-21.06-942.22-.3-135.25-.25-270.5.13-405.74.06-23.56-4.4-47.94 11.08-72.86 12.7-1.62 28.4-5.87 43.9-5.24 94.92 3.7 190.3-10.1 284.83 7.77 32.05 92.28 12.75 187.43 13.07 280.87 2.17 668.4 1.16 1336.76 1.08 2005.14 0 35.85-.25 71.6-1.4 107.36-.7 23.2-14.25 35.48-36.97 37.83-3.94.44-7.95.44-11.92.44-83.17-1.8-166.35-3.7-249.52-5.6-49.56-63.73-68.68-141.73-97.83-214.6-125.6-313.38-250.94-626.84-371.86-942.03-58.26-151.95-106.28-307.7-159.44-461.63-8.6-25-14.43-52.35-44.95-75.8-7.85 83.6 2.47 158.07 9.77 232 12.16 122.9 17.06 246.04 17.4 369.28 1.07 334.24.42 668.4.35 1002.62 0 19.85-.07 39.8-1.2 59.57-1.3 23.2-14.48 35.48-37.78 35.67-51.7.46-103.5 2.9-155.1.1-50.16-2.72-111.05 22.55-147.66-16.44-32.06-34.23-11.9-91.47-11.92-138.42-.76-712.07-.54-1424.23-.54-2136.4 0-31.87-.62-63.66.35-95.44 1.42-47.58 5.1-51.55 57.7-52.36 75.57-1.1 151.23 1.26 226.77-1 42.43-1.26 62.2 15.98 77.58 55.8 91.64 237.08 185.98 473.1 280.35 709.1 95.84 239.7 194.36 478.33 268.65 726.07 2.16 7.14 8.68 13.1 13.18 19.6 2.93 70.95 31.15 135.24 51.72 183.72-5.68-49.66 7.07-117.64-9.5-184z" class="fil2"/><path d="M21173.4 16768.5c0-815.2 0-1618.3 0-2420.56 20-20.58 44.97-15.34 68.23-15.25 179.07.52 358.15 1.24 537.22 3.05 88.27.8 173.86 18.6 256.46 49.2 184.83 68.62 288.98 202.78 319.2 396.35 17.4 111.25 13.94 222.56-4.13 332.9-25.23 155.02-106 272.02-248.2 343.62-21.08 10.56-42.24 20.77-65.63 32.32 17.84 37.1 52.23 36.12 78.96 47.76 128.96 56.6 230.08 141.3 278.15 278.26 10.47 29.98 19.96 60.94 24.48 92.18 18.46 126.67 22.56 254.52-1.22 380.38-48.33 255.7-209.67 402.3-459.2 457.37-50.3 11.1-102.2 20.84-153.46 21.4-206.66 2.42-413.28 1-630.82 1zm347.25-697.47c.04 0 .04 0 .04 0 0 122.88 0 245.66.07 368.55 0 3.97.32 7.94.28 11.92-.5 28.25 13.77 44.96 41.56 46.3 87.28 4.07 174.8 3.35 260.68-13 136.22-25.9 214.54-106.98 241.13-244.58 20.55-106.16 20.96-212.6.65-318.96-23.66-123.88-93.8-205.95-215.6-243.78-80.77-25.1-163.34-29.52-246.8-28.17-80.45 1.37-81.3 1.37-81.85 76.95-.72 114.93-.17 229.95-.17 344.8zm.26-1077.1c0 115.4 0 230.78 0 346.15 0 28 12 45.06 41.78 45.88 71.73 1.98 142.57-1.54 213.17-18.33 112-26.64 182.37-95.25 211.27-203.96 33.18-124.86 36.52-251.35 6.14-377.93-21.7-90.65-77.73-142.93-168.6-164.15-86.5-20.23-173.6-19.96-261.12-18.88-29.24.45-42.56 16.6-42.56 45.14 0 115.3 0 230.68-.05 346.06z" class="fil3"/><path d="M13736.18 15644.62c137.9 111.05 180.7 264.7 219.35 419.1 53.1 212 102.25 424.97 152.4 637.78 4.5 18.95 4 39.1 6.1 61.58-60.45 18.3-120.17 8.66-178.72 8.2-63.1-.45-126.96 10.66-189.44-7.4-30.48-56.87-33.1-120.7-45.2-182.2-30.7-156.1-60.26-312.38-92.8-468.02-13-62.13-30.88-123.33-49.9-183.83-15.57-49.48-40.84-94.44-71.22-137.05-35.53-49.75-78.15-77.56-141.57-63.47-19.32 4.35-39.36 5.6-59.18 7.7-86 9.3-74.8 17.5-74.87 88.4-.3 274.63.2 549.27-.53 823.92-.14 38.93 8.6 79.46-14.5 122.53-96.74 0-195.97.1-295.2 0-23.2-.1-36.9-11.28-37.82-35.12-1-27.7-1.53-55.6-1.53-83.42-.1-736.35-.1-1472.72-.05-2209 0-23.92 1-47.84.18-71.6-1.16-32.3 17.15-40.16 44.88-39.9 198.98 1.55 397.96.9 596.9 4.8 104.38 2.07 204.15 30.24 299.27 73.57 110.72 50.48 188.87 132.9 228.83 247.03 71.72 204.58 79.85 413.13 19.77 621.78-38.8 134.72-121.4 240.16-238.6 317.72-22.2 14.7-45.4 27.9-76.55 46.95zm-525.54-589.3c-.05 0-.15 0-.24 0 0 107-.04 214.16.1 321.24.05 23.75.27 47.58 1.86 71.32 1.16 17.52 12.5 31.88 29.52 30.08 90.46-9.4 182-13 269.22-42.7 109.87-37.48 181.97-111.52 206.17-225.82 26.6-125.4 24.87-252.25 2.03-378.02-18.96-104.2-81.8-165.5-187.02-189.87-90.6-21.03-181.25-16.52-272.22-16.9-38.73-.16-48.75 10.22-49.07 49.95-.9 126.84-.37 253.8-.37 380.73zm-10711.7-722.62c105 3.24 231.76 1.06 358.4 22.74 180.7 30.87 314.5 126.58 413.54 275.73 73.65 110.78 114.72 235 139.35 364.93 31.93 168.57 43.3 339.02 44.33 510.3 1.2 195.2-9.8 389.4-44 581.97-16.8 94.45-46.85 184.55-85.67 271.93-98.17 221.12-265.73 351.84-505.24 388.87-86.47 13.45-173.1 24.37-261.08 23.38-119.32-1.44-238.65-.54-358-.63-22.85-.1-37.53-10.02-38.86-33.95-1.3-23.84-1.7-47.67-1.7-71.5-.07-743.86-.15-1487.72 0-2231.6 0-114.56-9.38-101.55 102.03-102.1 71.62-.35 143.25-.08 236.87-.08zm10 1216.67c0 246.48-2.03 493.04.6 739.6 2.22 211.37-41.58 182.2 195 172.73 3.95-.17 7.92-.63 11.85-1.26 145.9-22.4 247.83-101.12 302.03-238.9 27.7-70.6 44.83-144.46 54.14-219.3 38.07-305.17 40.8-610.7.12-915.67-15.3-114.76-44.4-226.17-116.7-321.24-50.44-66.54-114.3-110.6-198.6-118.35-63.2-5.78-126.77-9.5-190.2-10.4-49.05-.62-56.5 8.6-57.98 53.9-.9 27.82-.3 55.72-.3 83.43-.02 258.5 0 517 0 775.48z" class="fil4"/><path d="M12445.52 15554.15c-1.5 225.54-6.33 440.06-53.27 651.05-22.48 101.2-54.04 199.44-103.8 290.63-103.18 189.14-260.8 294.5-478.54 304.7-75.6 3.53-150.3.82-225.2-14.34-167.94-34.06-286.12-131.4-365.65-279.37-78.1-145.27-119.8-302.55-140.92-464.8-42.23-324.66-42-649.95-.7-974.8 17.63-138.5 54.62-272.2 108.8-401.04 1.52-3.7 3.65-7.14 5.23-10.76 103.02-242.87 288.2-360.33 550.24-360.14 75.97 0 150.18 12.47 223.4 31.87 70.8 18.7 131.46 54.9 184.72 104.56 73.82 68.7 130.02 149.6 169.16 242.5 49.66 117.92 78.37 241.16 96.56 367.46 25 173.7 27.62 348.5 29.98 512.44zm-352.62 13.37c-1.53-211-4.96-401.5-36.6-590.3-17.2-102.38-46.72-200.24-98.1-291.7-83.88-149.06-321.37-154.3-412.06-11.47-38.74 61.03-67.4 125.86-85.37 195.38-24.82 96.33-39.6 194.65-46.5 293.7-17.3 245.94-16.74 492.23-.27 738.17 7.18 107.07 22.43 213.34 49.44 317.45 23.2 89.37 61.12 172.25 125.8 240.06 82.66 86.7 179 97.08 279.2 32.6 44.84-28.9 75.4-69.4 101.08-115 49.62-88.04 71.52-184.38 87.68-282.7 29.65-180.92 31.14-363.75 35.7-526.17z" class="fil5"/><path d="M20290.38 14336.66c119.13 0 225.7 0 330 0 25.67 18.96 19.17 44.24 19.17 66.72.4 588.83.55 1177.77.14 1766.6-.1 83.7-8.5 166.5-31.4 247.75-58.6 207.93-193.16 336.67-405.33 372.6-137.4 23.4-277 20.77-414.8-12.1-203.43-48.4-323.37-177.5-369.28-377.56-16.94-73.4-27.28-148.43-27.2-224.63.6-584.96.33-1169.83.3-1754.7 0-11.92-.3-23.92.16-35.75 1.85-42.73 8.36-51.66 46.23-52.1 87.52-1.2 175.05-.56 262.63-.28 27.03 0 45.42 10.2 45.27 41.08-.12 31.78.47 63.66.47 95.44 0 561.04-.05 1122.06.13 1683.1.1 43.7-1.44 88.02 4.47 131 12.6 91.2 49.4 169.55 142.97 203.05 102.33 36.54 203.87 36.1 296-29.55 47.22-33.68 71.15-84.6 83.65-140.4 13.97-62.47 16.86-125.76 16.76-189.68-.66-553.1-.4-1106.08-.4-1659.17 0-39.53 0-79 0-131.44z" class="fil4"/><path d="M15170.1 16771.38c34.46-145.18 64.1-272.76 95.14-399.97 156.5-641 313.46-1281.94 470.38-1922.87 5.64-23.2 14.32-45.78 17.92-69.25 5.06-33.04 21.32-47.3 55.44-47.04 111.4 1.18 222.87 1.53 334.32-.1 34.7-.53 49.53 15.35 57.03 46.24 39.45 162.25 79.62 324.22 119.4 486.37 150.64 613.85 301.18 1227.7 451.87 1841.45 4.6 18.77 14.45 36.83.4 64.9-110.5.28-225.44.73-340.37.9-29.4 0-41.6-19.58-46.63-44.78-25.46-128.74-50.33-257.58-75.75-386.23-5.38-27.38-11.56-54.47-17.82-81.55-5.2-22.57-20.28-32.05-42.98-32.05-179.13 0-358.3-.18-537.43-.08-27.7 0-42.48 13.64-47.9 41.72-22.42 117.1-46.22 234-69.65 351-7.9 38.93-16.52 77.75-24.02 116.85-4.37 22.64-16.7 34.47-39.95 34.47-114.84 0-229.73 0-359.4 0zm552.57-835.5c159.9 0 302.4.2 444.97-.27 19.36-.1 38.82-3.77 58.28-5.85-11.87-108.34-225.63-1248-246.75-1314.74-6.9 11.57-16.43 20.7-18.1 31.16-67.9 426.43-156.7 849.05-238.4 1289.73zm11816.43 833.6c-132.86 0-251.76 0-375.8 0-20.6-33.23-25.66-72.04-32.97-110.24a52739.62 52739.62 0 00-73.5-374.4c-10.9-54.37-13.85-57.34-71.1-57.62-163.13-.8-326.2-.72-489.34-.1-65.2.3-68.04 3.1-79.83 62.5a69256.72 69256.72 0 00-75.3 386.15c-6 31.24-8.25 63.3-30.02 91.1-10.3 1.62-21.84 5.33-33.3 4.96-110.93-3.16-222.2 9.12-332.85-6.95-4.9-112.04 37.25-215.15 62.77-320.87 161.14-668.2 324.97-1335.67 487.9-2003.5 5.58-23.1 11.32-46.23 16.8-69.43 5-21.4 17.27-37.3 39.63-37.56 123.4-.7 246.7-.7 370.02.37 16.57.18 28.62 13.18 33.3 29.6 4.4 15.28 6.5 31.16 10.4 46.6 186.98 760.02 374.18 1519.95 561 2280.06 5.58 22.76 7.26 46.5 12.17 79.36zm-1056.78-846.43c107.74 18.52 416.8 17.16 506.22-2.43-20.23-108.7-40.36-217.68-60.8-326.65-21.2-113.22-42.72-226.34-64.02-339.56-20.6-109.33-41.5-218.5-61.3-328-19.77-109.06-31.7-219.83-70.43-354.63-76.27 471.4-165.06 910.9-249.7 1351.3zm-8280.34 84.05c-17.28 35.13-9.56 71.52-9.65 106.73-.9 182.92-.4 365.83-.5 548.75 0 23.84-.17 47.68-1.26 71.5-1 23.22-14.4 36.94-37.1 37.12-91.47.8-182.93.54-274.34.72-30.24.1-41.5-17.52-41.62-45.23-.12-23.86-.25-47.7-.25-71.6 0-735.75-.13-1471.48.27-2207.23 0-35.38-6.23-71.67 7.77-107.34 11.14-2.35 22.66-6.95 34.16-6.95 171.05.44 342.05 1.34 513 2.43 68.26.46 134.35 15.54 198.9 35.4 202 61.94 333.65 197.2 392.38 398.25 71.82 245.94 68.3 494.5 4.6 741.88-48.97 190.3-170.27 319.97-347.7 398.33a958.42 958.42 0 01-298.55 77.93c-47.05 4.4-95.2 1.97-140.1 19.3zm-10.28-826.55c0 138.78-.55 277.54.13 416.3.8 168.75-17.28 147.8 147.25 122.34 174.35-27 285-126.7 318.17-306.08 31.38-169.83 25.96-339.02.72-508.4-4.65-31.14-13.18-61.94-22.07-92.27-25.42-87.03-84.64-139.22-169.52-168.1-65.63-22.4-132.44-22.4-199.8-21.86-73.26.43-74.35 1-74.62 70.32-.67 162.52-.26 325.12-.26 487.72z" class="fil5"/><path d="M6660.1 14336.3c341.96 0 675.75 0 1017.75 0 7.36 105-7.6 204.94-19.4 311.93-55.5 0-106.9 0-158.3 0-139.3 0-278.58-.45-417.9.2-80.25.43-81.3 1.25-81.72 76.63-.8 143.3-.27 286.48-.27 429.84 0 51.1 0 102.4 0 156.2 101.36 18.6 196.67 7.32 291.3 9.3 95.33 2 190.76.46 289.13.46 28.9 45.5 15.3 94.07 15.75 139.4.47 46.94 20.78 104.82-10.25 138.68-35.77 38.9-97.3 15.25-147.36 16.25-127.3 2.32-254.66.24-382.02 1.5-46.8.46-55.82 9.76-55.95 56.34-.7 238.72-.9 477.53-.06 716.24.24 60.2 6.7 65.8 71.3 66.17 167.13.9 334.27.72 501.43.28 114.63-.37 104.83-1.37 105.03 102 .04 39.92-.52 79.64.08 119.46 1.43 96.6-3.1 95.34-89.26 95.16-286.52-.36-573.06 0-859.58-.36-23.2 0-47.55 5.33-68.92-9.3-13.16-92-14.56-2299.46-.78-2426.4z" class="fil4"/><path d="M3903.52 14343.16c22.12-14.72 46.6-10.47 70.08-10.47 290.63-.3 581.27-.2 871.85-.2 15.93 0 31.84.44 47.76.9 23.27.63 38 11.82 36.67 36.02-4.7 83.42-10.22 166.76-15.96 250.1-1.3 19.05-15.04 26.7-32 27.34-31.82 1.27-63.67 1.55-95.5 1.55-159.26.18-318.5-.36-477.7.45-51 .28-59.85 7.5-60 50.66-.77 191.14-.7 382.17-.05 573.3.13 39.2 8.47 46.96 51.2 47.24 143.33.8 286.62.35 429.95.53 27.84.1 55.77.2 83.5 1.8 17.84 1.1 29.55 13.1 29.75 30.53.8 83.16.34 166.5.34 245.2-29.38 24.3-58.28 17.72-85.48 17.8-135.33.64-270.7.27-406.03.45-23.8 0-47.7.46-71.44 2.35-17.55 1.53-28.15 13.27-30.9 30.26-1.86 11.64-1.36 23.74-1.36 35.74-.02 238.8 0 477.7.07 716.5 0 16.08 0 32.23 16.62 47.5 33.3 13.8 73.57 6.3 112.96 6.6 167.2.8 334.4.62 501.6.36 29.95 0 42.92 13.53 42.7 42.96-.38 75.66.76 151.32-.43 226.9-.63 38.45-9.5 45.14-51.35 46.75-15.92.55-31.88.2-47.8.2-274.66 0-549.38.08-824.05-.1-23.84 0-47.7-.36-71.47-2.17-17.62-1.27-29.15-12.27-30.55-29.96-1.9-23.85-2.4-47.77-2.4-71.52-.1-748.46-.14-1496.93.28-2245.3 0-26.9-6.92-55.35 9.12-80.26zM10763 14667.2c-48.96-13.55-83-22.94-116.96-32.5-84.76-23.76-170.7-38.1-259.1-33.77-144.73 7.04-246.13 97.5-268.82 239.52-20.48 127.94 2.55 244.85 85.98 347.5 37.76 46.5 78.84 89.47 124.23 128.48 60.35 51.82 120.3 104.1 181.26 155.3 251.62 211.1 331.92 485 295.24 802.1-3.66 31.5-8.4 63.2-15.96 94.06-49.5 201.05-167.55 341.1-370.03 398.32-212.72 60.23-425.16 42.7-635.84-15.43-22.82-6.34-31.04-22.5-31.15-44.08-.4-79.54-1.03-159.08-.3-238.63.26-29.53 14.82-38.37 48.22-31.43 66.08 13.73 132.03 28.1 198.06 42.08 58.95 12.55 118.73 13.64 178.25 8.4 167.9-14.9 266.82-118.37 280.3-285.4 14.56-180.2-46.13-326.64-184.36-443.2-85.15-71.7-170.08-144.18-250.16-221.38-216.73-209.2-294.42-462.44-242.85-760.47 41.37-239.07 182.75-381.8 406.68-450.25 172.65-52.72 346.03-39.08 516.8 13.1 57.34 17.5 59.7 23.47 60.33 85.14.8 75.27.2 150.5.2 242.5zm-5454.06-324.76c90.7-12.46 822.78-16.16 1001.58-5.06 23.1 18.33 12.55 43.15 10.17 65.28-3.8 35.47-12.58 70.5-16.35 106-18.62 174.6-5.6 141.57-159.76 143.82-127.24 1.98-254.5.45-381.8.45-31.53 0-63.08 0-91.16 0-6.96 13.54-13.4 20.23-13.46 27-1.23 198.7-1.67 397.52-2.67 596.23-.12 29.53 13.23 43.98 42.37 44.06 135.2.18 270.45.18 405.65.36 35.77.1 71.57.1 107.34.82 22.14.36 39.43 10.1 39.88 33.86 1.34 75.47 1.36 151.04.8 226.5-.15 17.44-11.64 30.36-29.08 31.62-31.64 2.35-63.54 2.62-95.3 2.8-139.17.27-278.37-.36-417.57.73-47.15.28-53.68 7.33-53.77 56.8-.62 294.33-.34 588.57-.4 882.9 0 55.6.74 111.3-.53 167.03-.9 39.27-9.57 47.84-50.13 48.3-83.48 1.07-167 1.07-250.5 0-45.92-.63-51.67-7.95-53.4-58.14-.84-23.85-.28-47.77-.28-71.6 0-727.8-.15-1455.6.33-2183.38.02-38.9-7.3-78.8 7.98-116.36z" class="fil3"/><path d="M17060.37 18905.08c-132.03-304.17-264.93-587.13-387.64-879.2-.85 32.06-3.9 64.3-2.12 96.26 18.94 345.78-2.14 691.57-3 1037.28 0 11.92.4 23.92-.76 35.83-2.44 23.4-17.07 34.4-39.64 34.6-63.43.35-126.96.08-187.35.08-23.47-32.96-15.94-65.27-14.94-96.42 16.67-512.62 33.47-1025.16 50.26-1537.63.4-11.92-.1-23.92.8-35.85 1.6-22.55 12.8-36.73 36.58-37.9 15.84-.82 31.78-1.45 47.67-1.18 158.5 2.63 125-21.58 183.64 126.77 91.92 232.57 183.37 465.4 275.37 698 11.16 28 14.24 60.93 44.7 79.1 34.4-27 38.65-69.36 53.05-105.2 90.06-224.8 177.8-450.6 266.34-676.06 11.6-29.52 22.1-59.6 35.3-88.48 8.26-18.06 20.85-34.13 44.37-33.5 59.05 1.54 118.6-7.5 182.06 7.5 6.28 127.93 14.35 254.43 18.47 381.18 13.17 409.27 24.95 818.62 37.2 1227.88.56 19.88.47 39.82-.83 59.5-1.14 17.17-9.9 29.44-28.3 31.7-7.86 1.1-15.9 1.44-23.76 1.27-227.45-5.34-185.95 39.26-192.7-183.56-5.7-186.72-10.2-373.52-11.9-560.4-1-107.26 4.87-214.53 6.6-321.87.4-23.4-2.9-46.95-6.56-70.16-.76-5.05-9.84-11.46-15.84-12.37-5.92-.9-16.22 2.44-18.75 7.14a388.96 388.96 0 00-24.65 54c-84.45 231.57-188.24 454.94-284.3 681.55-9.2 21.7-20.68 42.35-39.33 80.18z" class="fil6"/><path d="M13679.62 10119.3c26.8-.23 34.62 20 45.18 35.2 203.37 291.7 332.88 612.8 389.67 964.34 23.62 146.17 28.23 292.93 28.9 439.92 2.03 449.43.77 898.92.77 1348.4 0 15.9.35 31.8-.3 47.68-2.14 48.85-9.82 56.8-55.55 53.72-55.54-3.7-111.1-7.4-166.5-13.1a6270.94 6270.94 0 01-201.25-24.27c-38.24-5.17-49.06-16.8-51.46-53.2-1.8-27.7-1.1-55.6-1.1-83.4-.07-871.15-.26-1742.27.32-2613.34 0-34.08-10.34-70.7 11.3-101.97z" class="fil0"/><path d="M25825.8 14668.73c-97.55-33.3-176.06-59.77-259.66-66.1-164.77-12.46-242.46 30.8-316.58 176.15-54.9 107.53-84.56 222.64-99.68 341.28-38.42 300.92-40.04 602.38-1.1 903.48 12.75 98.78 35.37 195.47 78.84 285.93 20.67 43.07 44.37 84.43 78.68 118.64 41.17 41 89.43 64.66 148.7 64.5 84-.28 166.26-11.57 246.3-37.48 36.87-11.9 73.67-24.37 110.96-36.65 25.05 33.13 14.08 65.73 16.02 95.88 1.98 31.7.72 63.57.32 95.34-.4 31.77-.54 63.56-2.85 95.24-1.3 17.98-17.33 25.92-31.73 31.7-186.84 74.66-378.6 93.98-570.92 29.8-133.98-44.8-227.8-142.03-291.17-267.43-59.63-117.83-96.43-243.7-119.45-373-49.83-279.32-56.8-560.46-33.3-843.14 14.17-171.28 45.4-338.12 103.77-499.9 22.98-63.67 49.85-125.4 84.15-183.83 119.36-203.32 300.83-299.66 532.68-302.73 95.3-1.28 190.24 10.46 279.25 50.82 31.83 14.44 51.23 33.3 50 71.6-2.37 78.63 1.78 157.54-3.24 249.9z" class="fil3"/><path d="M15785.37 10111.93c0 39.05.1 78.1 0 117.15-.6 870.98-1.26 1742-1.94 2613 0 23.84.76 47.75-.46 71.6-2.25 44.96-9.25 53.7-57.4 58.95-122.48 13.46-245.1 25.63-367.8 37.2-39.58 3.7-48.2-5.33-50.05-46.4-1.08-23.84-.45-47.77-.45-71.6-.06-473.3-2.22-946.6.53-1419.88 2.77-478.56 141.22-915.85 413.1-1310.22 13.24-19.14 28.5-36.88 42.8-55.26a2015 2015 0 0121.67 5.46z" class="fil0"/><path d="M23179.73 14333.67c19.18 48.76 10.56 92.9 10.65 135.9.68 616.45.18 1233.02.68 1849.57.04 144.1-18.33 130.83 135.87 131.37 115.34.37 230.67-.1 346.02 1 33.22.27 45.28 12.1 41.9 42.53-9.03 82.88-20.05 165.58-31.15 248.3-2.35 17.5-15.36 26.8-32.92 28.34-11.87.98-23.78 1.7-35.65 1.8-238.72.1-477.35.36-715.97-.26-55.93-.2-60.4-5.96-62.34-61.66-.8-23.93-.18-47.76-.18-71.7 0-723.8-.1-1447.72 0-2171.62 0-31.77.22-63.65.6-95.42.12-23.2 11.1-37.74 34.98-37.92 103.05-.45 206.02-.2 307.5-.2z" class="fil2"/><path d="M14541.3 16765.6c-23.97-39.9-12.88-84.78-12.93-127.48-.76-715.7-.54-1431.4-.48-2146.98 0-39.73.24-79.54.5-119.27.2-23.3 11.35-38.2 35.13-38.2 106.73 0 213.67-8.03 317.4 4.43 18.6 29.97 11.83 58.23 11.88 85.14.4 747.56.23 1495.03.45 2242.6.04 116.27 2.4 106.98-113.17 106.98-71.56-.1-143.1-.18-214.66-.8-7.64-.1-15.26-3.98-24.15-6.42z" class="fil7"/><path d="M24005.8 16771.3c-12.93-101.68-14-2306.62-1.4-2436.1 57.2-.88 115.8-2.16 174.37-2.5 55.17-.28 110.42.34 160 .62 22.96 33.5 15.7 61.93 15.7 88.66.4 748.1.27 1496.1.45 2244.12 0 111.78 3.07 106.72-101.8 106.17-82.88-.26-165.85 1.1-247.33-.98z" class="fil5"/><path d="M11172.5 17953.02c10.68-20.67 3.33-52.36 3.6-82.34 1.14-115.2 0-230.5 1-345.6.36-40.18 10.5-49.1 48.47-51.92 3.97-.27 7.96-.27 11.93-.18 226.57 4.34 190.68-36.4 191.45 183.46 1.76 488.72.26 977.52.76 1466.33.1 118.36.34 107.62-112.3 108.06-15.9 0-31.82.28-47.66-.63-22.3-1.35-33.86-15.53-43.66-34.5-27.84-53.97-29.1-54.43-76.38-20.4-91.67 66.18-190.8 90.1-303.55 68.08-110.72-21.5-186.46-83.96-236.02-181.37a700.37 700.37 0 01-64.5-191.03c-35.74-193.5-37.3-386.8 3.82-579.63 12.53-58.77 35.48-113.67 63.87-166.22 105.58-195.18 316.6-265.06 518.63-172.25 10.2 4.7 19.24 15.88 40.54.17zm4.46 624.78c0-87.3.04-174.7 0-262.1-.04-35.65 1.44-71.5-1.26-107.07-1.12-14.45-8.13-31.8-18.46-41.54-78.2-73.77-233.37-62.3-301.08 20.66-33.66 41.08-50.88 89.66-62.46 140.04-34.2 148.8-36.6 299.03-11.26 449.26 8.5 50.66 19.07 102.02 37.53 149.7 38.3 98.77 131.98 140.38 233 107.17 26-8.6 50-23.66 74.38-36.93 33.77-18.24 51.3-43.98 50.37-85.68-2.42-111.15-.8-222.3-.76-333.52zm2920.54-613.3c.14-87.95.23-170.83.36-253.6.14-63.58-.13-127.14.64-190.7.32-26.64 10.97-46.5 41.34-46.76 55.63-.46 111.24-.55 166.9.17 29.3.4 41.5 18.17 41.7 45.9.22 23.83.36 47.76.36 71.5 0 508.66 0 1017.23 0 1525.72 0 19.88.5 39.82-.3 59.6-2.04 47.68-7.2 52.46-57.17 54.44-11.87.46-24-1.44-35.7.37-69.24 10.92-115.6-11.55-123.77-85.05-31.73-4.32-45.64 17.97-64.06 31.52-107.58 78.72-225.67 93.9-350.53 53.8-83.25-26.8-142.07-84.77-182.43-161.8-48.6-92.7-75.38-192.93-85.44-295.67-14.72-150.32-17.47-301.2 13.53-450.9 13-62.73 33.6-122.6 61.63-179.56 103.6-210 315.86-285.1 531.18-189.7 10.03 4.34 21.45 5.6 41.77 10.75zm.63 605c0-19.77 0-39.64 0-59.4-.1-95.26-.04-190.34-.35-285.6-.1-24.27-5.2-46.12-26.5-62.46-103.73-79.82-256.46-51.2-317.53 63.2-20.23 37.92-34.82 80.44-43.43 122.6-33.87 165.32-31.47 331 5.27 495.67 6.85 30.8 16.02 61.6 28.74 90.3 39.4 88.5 120.7 128.3 214.06 103.74 30.12-7.94 58.13-24.47 86.34-38.46 39.5-19.77 54.76-51.82 53.98-96.6-1.94-110.96-.63-221.92-.6-332.97z" class="fil7"/><path d="M4737.35 19230.4c-14.98-31.7-28.28-59.87-41.2-87.14-29.06 2.44-43.74 23.1-62.37 37.02-164.88 123.5-459.23 102.1-556.07-170-28.1-79.1-48.35-159.28-58.5-242.5-18.43-151.16-14.52-301.57 14.8-450.72 12.27-62.3 36.25-121.35 63.6-179.04 102.76-216.6 347.5-269.95 513.26-192.3 46.76 21.94 56.98 14.9 59.14-32.32 1.3-27.73.7-55.63.74-83.43.03-95.43-.63-190.77.24-286.1.6-67.46 2.72-71.15 63.9-70.17 216.2 3.7 180.7-37.1 181.5 179.77 1.9 476.88.6 953.77.6 1430.75 0 31.77.73 63.55-.4 95.34-1.54 41.34-9.03 49.46-47.9 50.55-43.55 1-87.1.3-131.33.3zm-66.18-657.02c0-111.33 0-222.73 0-334.15 0-3.97-.34-7.94-.06-11.9 1.83-25.2-4.76-46.7-25.53-63.13-107.28-85.04-263.8-53.8-326.7 66.63-12.68 24.38-21.5 51.38-28.24 78.2-44.67 176.67-42.3 354.1-4.74 531.6 6.52 30.87 15 62.03 27.42 90.9 38.87 90.3 117.87 129.74 212.94 107.8 35.15-8.12 66.43-25.27 96.92-44.6 32.68-20.75 49.82-45.58 48.87-87.12-2.53-111.3-.86-222.7-.86-334.2z" class="fil3"/><path d="M22455.5 19230.1c-77.56 0-140.9 0-204.27 0-29.97-.08-41.9-17.5-42.3-45.13-.3-23.84-.3-47.67-.3-71.5 0-508.94 0-1017.88 0-1526.63 0-23.93-.5-47.86.53-71.6.9-21.58 9.4-39.55 34.08-40a5857.16 5857.16 0 01178.8-.8c17.62.07 29.58 12 30.97 29.33 2.24 27.72 2.38 55.6 2.4 83.42.24 127.2 0 254.4.43 381.62.1 15.7 2.48 31.5 5.33 47.04 2.75 14.9 19.8 18.15 26.94 14.45 24.56-12.63 47.5-28.7 70.14-44.87 92.63-65.9 196.52-81 306.57-68.7 96.36 10.82 161.18 64 196.6 151.95 19.34 47.84 30.44 98.58 30.53 151.12.18 317.98 1 636.06.72 954.13 0 50.3-5.78 55.07-54.98 56.07-59.32 1.1-118.77.27-175.25.27-25.04-42.7-15.64-83.34-15.8-122.16-.8-254.42-.56-508.83-.25-763.26.1-47.76-1.18-95.08-12.33-142.02-9.7-40.9-36.24-61.5-74.8-64.37-31.33-2.35-64.24-1.72-94.6 5.32-38.4 8.84-76.3 22.67-111.93 39.46-110.2 52.1-97.06 47.03-97.15 150.5-.17 254.52-.04 508.93-.04 763.36 0 39.45 0 78.8 0 133z" class="fil5"/><path d="M7654.2 18213.05c5.68 19.23 12.02 30.52 11.9 41.7-1.8 201 30.33 162.25-157.75 166.22-71.54 1.54-143.18.74-214.8.54-30.58-.06-41.17 16.64-41.14 44.6.13 163.18-.42 326.2.26 489.37.2 42.08 7.16 49.1 47.7 49.57 99.47 1.08 198.9.54 298.34.72 27.85.1 55.72-.27 83.52.9 22.53.82 37.05 13.37 39.26 36.12 1.9 19.68 1.4 39.64 1.4 59.5-.05 145 8.95 128.3-127.57 128.74-163.1.55-326.2.1-489.32.1-19.87 0-39.75-.1-59.64-.36-27.4-.45-45.17-12.37-46.73-41.62-.8-15.9-.8-31.77-.8-47.76-.07-509.12-.07-1018.32.05-1527.62 0-19.78.43-39.64 2.35-59.4 1.73-17.35 11.74-29.26 29.9-31.25a438.02 438.02 0 0147.5-2.6c190.96-.2 381.9-.2 572.86 0 15.83 0 32.4-.56 47.22 3.8 9.53 2.86 18.06 13.25 24.06 22.3 3.93 5.85 4.14 15.5 3.24 23.1-6.46 54.9 11.6 122.7-23.5 161.5-36.73 40.64-104.7 13.28-158.75 15.44-79.43 3.17-159.1.28-238.65 1.27-50.03.55-52.23 2.8-52.54 56.44-.72 119.45-.72 238.7.06 358.07.33 42.26 7.3 49.57 46.9 50.1 87.52 1 175.02.56 262.57.56 31.1 0 62.2 0 92.13 0zm13298.95 364.93c0-175.06 0-350.13.1-525.1 0-27.9.18-55.7 1.4-83.5.72-18.06 11.6-29.45 29.43-30.9 23.65-1.97 47.58-2.52 71.37-2.43 78.14.63 97.5-10.1 125.45 75.66 10.12 31.08 24.43 32.35 54.5 14.3 23.78-14.37 46.4-30.6 70-45.33 87.4-54.54 182.6-73.6 285-67.44 106.03 6.3 199.97 62.38 233.96 201.6 11.2 45.87 15.03 94.53 15.27 141.93 1.3 298.3.72 596.7.57 895.08-.1 15.8-.72 31.8-2.97 47.5-2.44 17.24-13.28 27.9-30.87 30.24a139.35 139.35 0 01-23.8 1.35c-226.75-4.7-188.92 37.48-190.9-183.8-2.22-234.76-.2-469.5-.87-704.24-.1-43.6-1.83-87.58-7-130.93-4.67-39.18-29.54-66.45-69-71.86-108.5-14.7-202.5 28-292.83 80.73-14.14 8.2-16.83 26-16.97 42.43-.13 27.8-.35 55.7-.35 83.52 0 254.6 0 509.2-.06 763.8 0 27.82 0 55.7-1.4 83.43-1.2 23.3-15.53 35.94-38.2 36.1-59.58.48-119.2.3-178.8-1.07-17.8-.35-28.63-13.63-29.98-30.7-2.26-27.7-2.85-55.52-2.9-83.32-.22-178.93-.18-358.06-.18-537z" class="fil8"/><path d="M24464.98 18552.52c3.65-89.56 5.9-197.37 37.37-301.1 13.77-45.4 28.9-91.9 52.82-132.35 70.97-120 173.34-195.48 317.26-202.97 39.64-2.07 79.6-2.7 119.1-.2 177.85 11.57 294.55 105.2 357.93 269.7 36.33 94 48.93 192.76 54.76 291.98 7.07 119.2 5 238.8-17.9 356.8-8.34 42.7-17.68 85.78-31.76 126.95-71.5 208.65-234.07 304.36-454.1 289.37-187.47-12.65-318.52-108-380.63-292.62-42.67-126.67-54.72-255.87-54.85-405.56zm693.43 17.88c-3.9-71.96-6.83-135.34-10.95-198.72-3.88-60.04-19.27-117.46-45.45-171.45-32.47-66.8-89-102.4-161.7-103.1-71.57-.73-132.7 26.72-165.2 95.78-14.98 32.08-28.4 65.85-36.06 100.15-35.9 160.9-32.4 323.32-11.92 485.46 5.9 46.78 23.07 92.2 35.58 137.98 9.75 35.3 29.56 64.73 54.9 90.72 73.62 75.56 168 75.38 240.73-1.45 33.58-35.4 51.37-79.18 65.64-125.23 32.32-104.1 27.27-211.98 34.44-310.12zm-12508.9-5.42c-7.17 127.57-11 242.96-42.82 355-20.87 73.4-50.1 142.56-102.2 199.98-92.73 102.12-213.7 138.77-345 132.27-200.6-10-334.45-105.27-397.33-287.2-58.46-169.27-69.35-342.26-53.36-518.05 6.85-75.12 15.82-150.42 39.25-222.9 30.1-93.2 81.66-170.57 157.54-233.95 128.97-107.97 441.6-104.1 569.06 21.05 64.82 63.55 105.96 138.3 130.83 223.45 9.97 34.3 19.17 69.34 23.23 104.72 9.12 79 14.77 158.37 20.77 225.63zm-259.56 4.52c0-59.5 1.76-119.1-.45-178.6-2.46-63.92-18.58-125.58-44.7-183.98-32.46-72.6-91.65-109.6-169.38-109.9-72.28-.17-129.92 31.07-163.37 99.24-28.36 57.78-46.36 118.63-49.52 182.47-4.52 91.18-6.55 182.46-7.14 273.74-.5 75.84 11.32 150.5 32.72 223.18 13.46 45.68 29.8 90.1 63.3 126.5 74.6 81.07 174.87 81.8 249.18.35 35.8-39.27 53.1-87.4 67-137.6 26.8-96.96 27.76-196.1 22.34-295.4z" class="fil6"/><path d="M18806.3 18696.9c0 139.03 0 278.06-.04 417.2 0 23.83.28 47.66-.58 71.5-1.08 27.17-13.36 44.7-43.07 44.88-27.83.1-56-2.62-83.35.98-56.57 7.42-90.84-13.1-102.93-70.23-4.14-19.33-19.95-23.93-35.42-12.28-22.2 16.52-40.82 38.18-63.92 53.08-65.56 42.26-135.7 58.96-215.3 45.32-144.1-24.64-223.72-112.86-254.5-249-18.42-81.62-21.45-165.22-10.02-248.9 26.18-191.97 156.45-314.65 350.8-326.76 51.5-3.27 103.32-.56 154.92-1.83 43.26-.98 51.1-7.57 51.92-45.5.98-47.76 2.25-95.52-1.13-143.1-5.02-68.16-33.86-100.3-102.52-110.24-38.77-5.6-79.63-5.24-118.45 0-46.9 6.4-92.8 20.6-139.04 31.87-109.52 26.65-112.72 58.6-110.87-89.82.2-19.87.5-39.72 1.93-59.5 1.36-17.24 11.6-29.16 27.72-34.76 152.63-53.63 309.78-72.4 469.48-47.76 111.24 17.24 192.77 103.37 211.05 215.24 8.9 54.63 12.05 110.68 12.77 166.12 1.8 131.2.6 262.28.6 393.47zm-256.32-111.33c-55.15 0-105.85-2.72-156.23.72-70.32 4.6-119 43.5-138.08 110.94-24.07 85.05-22.13 172.36-1.94 257.95 9.2 38.9 31.9 72.03 72.23 88.46 72.22 29.34 193.83-19.68 223.9-90.92 2.98-7.04 4.87-15.25 4.78-23.02-.58-113.85 6.82-227.87-4.66-344.16z" class="fil7"/><path d="M14623.5 18570.13c9.1-95 6.5-198.8 33.53-300.02 12.4-46.4 26.55-91.8 49.25-133.87 71.15-131.73 177.55-212.35 330.9-220.3 43.55-2.26 87.62-2.35 131.05 1.54 156.87 14 265.48 96.32 329.8 238.98 43.17 95.88 58.65 198.36 65.37 301.55 8.04 123.23 8.67 246.74-16.07 368.72-7.85 38.92-15.75 77.9-26.7 116.02-99.65 347.32-478.04 365.83-677.47 238.7-76.83-48.92-124.37-120.98-156.73-204.84-49.67-128.48-58.73-263.1-62.94-406.47zm694.55-32.14c-2.8-42.9-6.9-110.17-11.6-177.43-3.88-56.07-19.36-109.34-43.38-159.9-32.22-67.7-89.47-101.84-161.55-103.65-71.78-1.9-131.38 27-166 95-18.05 35.47-31.46 72.2-39.54 111.67-30.65 149.5-27.72 300.2-12.65 450.6 5.1 50.65 23.34 100.12 35.9 150.05 8.9 35.3 26.4 66.37 49.92 93.8 74.3 86.78 183.46 86.78 257.05-.53 28.43-33.77 45.23-73.77 57.7-116.3 30.55-104.36 31.54-211.54 34.15-343.34z" class="fil6"/><path d="M9514.58 18171.97c-2.7-6.96-8.06-14.35-8.03-21.58.6-202.9-36.3-164.06 163.2-217.16 104.6-27.8 212.97-27.25 319.76-13.18 122.9 16.17 207.9 102.83 227.67 226.53 5.65 35.1 7.74 71.22 7.8 106.8.64 298.03.47 596.06.3 894.1-.07 19.77-1.13 39.62-3.92 59.22-1.74 12.1-11.12 21.22-23.93 21.85-31.7 1.35-63.73-1.18-95.08 2.53-55.8 6.6-91.93-10.65-103-69.6-3.55-19.05-19.04-24.3-35.4-13.18-12.96 8.84-24.25 20.3-35.66 31.24-139.1 132.35-424.87 83.7-489.42-146.45-32.85-117-38.9-235.35-6.37-353 40.5-146.62 173.55-247.3 336.96-257.13 55.46-3.34 111.2-1.08 166.8-1.9 21.55-.27 39.9-7.75 40.25-32.68.7-55.63 1.97-111.33-1.3-166.76-3.2-54.35-36.9-85.68-88.7-97.96-47.15-11.1-94.9-10.65-141.84-.28-61.9 13.7-123.28 29.8-184.7 45.7-15.17 3.96-29.5 10.8-45.37 2.87zm458.4 409.07c-58.68 3.25-112.94-2.25-167.48 5.6-65.42 9.4-110.28 46.95-127.47 108.98-23.6 85.06-21.22 172.8-2.67 258.5 9.4 43.5 35.58 79.08 82.4 93.25 70.7 21.5 183.5-26.8 214.25-92.54a55.77 55.77 0 005.26-22.84c.1-114.13 6.1-228.26-4.26-350.97zm9908.44-410.5c-2.07-5.07-7.66-12.38-7.66-19.6.35-203.05-36.6-165.5 162-217.77 104.74-27.54 213.08-27.17 319.85-12.92 122.4 16.26 208.35 103.65 227.26 227.07 7.18 46.95 9 95.07 9.12 142.65.85 286.12.45 572.23.4 858.35 0 15.88-.58 31.77-1.66 47.58-1.66 23.74-15.83 34.2-38.77 34.3-27.85.2-55.9-1.9-83.38.9-54.52 5.5-92.67-7.5-103.74-68.97-4-22.4-25.63-24.74-44.82-8.75-12.17 10.1-23 21.84-34.83 32.4-139.04 124.6-401.87 65-467.73-118.1-48.7-135.52-59.07-272.84-11.54-408.53 53.13-151.68 172.9-221.84 327.65-235.74 59.18-5.3 119.13-2.05 178.67-3.4 17.67-.46 30.84-9.93 30.98-28.54.4-55.6 3.03-111.5-2-166.66-5.55-61.23-35.83-89.85-97.9-102.94-43.35-9.2-87.3-8.3-130.2 1-62.03 13.44-123.37 29.7-184.95 45.05-15.12 3.8-29.43 12.57-46.68 2.64zm458.74 415.93c-59.17 0-113.97-3.16-168.2.9-60.5 4.5-104.8 38.83-123.87 96.43-30.58 92.63-27.5 188.06-4.07 281.32 10.9 43.35 42.3 75.3 90.54 85.24 67.28 13.8 172.86-35.13 203.5-95.8 3.48-6.86 6-15.07 6-22.75.42-114.2 6.64-228.6-3.92-345.32zm-14205.24-2.44c2.24 126.76-11.35 248.1-47 367.74-102.33 343.8-500.28 358.97-692.17 217.13-56-41.35-95.5-94.45-124.07-157.18-31.57-69.35-53.67-142.3-62.72-216.96-21.76-178.68-22.06-357.54 20.54-533.77 10.15-42.18 25.03-84.5 45.48-122.63 70.4-131.17 175.94-213.8 329.7-222.28 39.6-2.27 79.56-2.54 119.1.1 178.07 11.9 295.53 106.52 356.88 270.93 47.98 128.56 57.22 263.54 54.26 396.9zm-692.03-18.24c-5.4 108.87 9.84 218.3 41.7 325.92 13.8 46.67 34.25 88.84 69.8 122.6 65.85 62.47 144.1 65.55 215 8.94 28.54-22.84 50.46-51.38 63.25-85.14 14.02-36.93 27.86-74.67 35-113.3 31.24-169.66 29.22-339.94 1.9-509.94-7.64-47.13-22.25-92.46-47.25-133.9-68.95-113.75-249.27-110.24-309.96-.63-23.3 42.07-41.28 85.5-49.02 133.17-13.4 82.43-24.63 165.04-20.43 252.25z" class="fil2"/><path d="M23485.6 18178.28c-4.6-8.38-8.03-11.8-8.16-15.34-7.5-226.6-38.24-176.6 168.74-232.57 96.12-26 197.46-23.56 296.73-11.65 123.1 14.7 202.48 85.96 231.37 207.48 9.12 38.27 15.03 78.36 15.16 117.73 1.28 306.33.78 612.57.63 918.92 0 11.92-.9 23.84-2.03 35.65-1.7 18.34-12.63 28.64-30.37 30.08-19.77 1.7-39.64 1.8-59.45 2-104.4 1.15-104.4 1.06-150.37-90.48-35.17 2.98-50.1 34.84-73.53 53.7-141.67 114.13-388.83 50.4-453.56-116.82-54-139.4-61.9-280.6-14.44-420 50.15-147.35 167.25-217.23 317.3-232.76 59.1-6.22 119.23-2.5 178.86-3.7 17.06-.36 32.05-6.86 33.62-25.82 5.47-63.38 7.68-126.93-2.97-190.14-6.57-39.18-29.82-62.02-67.3-75.4-42.83-15.24-86.44-16.05-129.5-9.64-50.93 7.3-100.98 20.84-151.23 32.77-33.8 7.84-67.32 17.5-99.45 25.97zm454.82 589.84c-.18 0-.4 0-.6 0 0-47.58.3-95.15-.08-142.64-.18-27.73-11.64-44.8-42.43-43.52-39.53 1.6-79.3.54-118.66 4.14-70.9 6.42-117.2 45.8-136.1 113.86-23.88 85.85-23 172.53-.28 258.57 10.65 40.54 34.45 71.5 74.08 86.77 94 36.3 220.84-46.77 223.9-146.35 1.32-43.6.2-87.22.2-130.83z" class="fil6"/><path d="M19853.3 5795.87c-36.65-12.43-42.33-38.1-54.44-57.35-192.7-309.22-464.1-519.45-805.25-642.37-141.37-50.92-146.16-61.48-92.93-202.42 80.9-214.18 296.4-347.9 518.28-321.7 226.57 26.78 402.3 199.93 433.37 427.9 3.8 27.47 5.2 55.48 5.3 83.23.36 222.9.2 445.77.04 668.68-.05 11.33-2.2 22.62-4.34 44.03zm-10244.52 5.45c-15.55-4.87-11.92-18.33-11.92-28.6-.3-238.4-1.88-476.82.5-715.17 1.4-146.8 60.78-269.78 171.24-366.5 277.63-243.26 720.3-100.4 802.97 258.94 5.3 23.03 7.36 47.12 8.48 70.8.95 20.84-6.17 38.77-28.7 46.26a6537.58 6537.58 0 00-78.88 26.96c-351.12 121.15-626.54 337.48-821.98 654.22-11.96 19.28-18.9 42.6-41.73 53.07z" class="fil0"/><path d="M9041.38 17566.43c15.87 35.66 6.77 75.3 7.7 113.94 1.5 63.47-.3 127.04.67 190.6.9 60.93 4.52 64.1 69.62 65.36 47.1.9 94.23.18 138.42.18 18.47 43.7 4.8 78.75.7 113.15-8.3 68.43-14.96 72.4-80.28 74.93-39.34 1.54-79.53-6.86-117.2 8.57-16.1 21.68-11.35 46.14-11.38 69.44-.25 230.4 3.22 460.8-1.34 691.12-3.02 152.4 66.84 160.17 166.34 140.23 26.94-5.43 54.02-10.2 79.83-15 6 9.94 13.46 16.7 13.5 23.38 1.2 206.77 35.2 172.47-176.14 208.67-43.6 7.4-86.82-.1-129.75-10.48-113.06-27.27-179-97.24-193.56-212.72-5.43-43.07-4.94-87.12-5.02-130.82-.47-218.4-.2-436.9-.32-655.3-.02-27.8-.78-55.6-1.48-83.32-.5-19.6-14.57-25.55-30.35-30.6-36.65-11.57-86.87 16.24-110.46-22.68-22.6-37.18-7.1-85.5-7.9-128.83-.4-22.38 10.9-35.4 34.9-39.1 37.54-5.86 87.03 18.7 109.94-20.76 16.3-28 10.08-69.35 12.96-104.74 4.53-55.17-5.44-117.9 25.8-162.07 31.48-44.24 97.07-48.75 146.17-73.86 17.62-9.02 35.27-18.87 58.6-9.3z" class="fil3"/><path d="M7896.33 19198.78c-7.03-65.27-3.42-131.18-1.82-206.65 52.4 12.63 94.4 21.12 135.35 33.2 42.63 12.66 85.44 18.88 129.52 15.2 63.8-5.44 119.1-30.26 139.6-94 22.5-70.16 25.3-142.83-34.92-199.53-25.75-24.2-56.88-42.98-86.76-62.48-53.36-34.67-107.2-68.25-154.4-111.6-128.9-118.45-152.84-264.35-108.1-425.23 34.17-123.1 125.9-191.97 244.15-221.5 97.34-24.37 197.3-20.4 294.16 11.56 61.76 20.3 62.67 21.94 64.5 82.07.57 19.86.3 39.82.07 59.67-1 78.66-.93 78.12-76.04 61.05-34.88-7.85-70.18-14.9-105.65-18.5-27.4-2.9-55.88-3.25-83 1.08-49.4 7.76-93.3 30.15-109.07 80.7-18.14 58.42-22.83 119.55 24.65 168.03 27.5 28.17 60.73 51.1 93.3 73.5 42.52 29.34 87.78 54.6 130.28 83.97 97.84 67.35 153.4 159.53 156.35 279.87 1.17 47.58 2.43 95.7-2.53 142.92-14.7 140.48-105.3 243.95-240.23 279.26-139.78 36.56-258.14 27.35-409.37-32.6z" class="fil2"/><path d="M19707.27 18177.75c-52.77-7.22-87.67-12.82-122.74-16.7-41.08-4.43-78.4 7.76-114.04 27.53-38 21.22-55.36 50.4-55 96.25 1.9 234.64.86 469.3.86 703.86 0 63.72.63 127.3-.54 190.93-.82 40.8-9.2 49.2-48.48 50.2a2921.56 2921.56 0 01-143.2 0c-45.5-1-52.22-7.95-53.13-57.87-1.2-63.66-.4-127.2-.4-190.86 0-306.25-.14-612.4.18-918.65 0-38.83 2.2-77.64 3.34-112.68 36.87-19.95 69.3-12.18 100.44-12.54 78.8-.72 78.76.08 108.6 74.2 2.95 7.24 7.45 13.9 11.6 21.4 25.3 4.53 30.7-18.4 40.55-32.3 62.17-87.4 148.67-97.34 244.5-79.37 18.5 3.43 26.92 17.15 27.14 33.67.85 71.15.32 142.3.32 222.92z" class="fil4"/><path d="M19991.26 14163.67c-43.74 0-87.44.37-131.23-.18-16.44-.3-26.87-20.43-17.06-33.6 21.26-28.7 43.5-56.8 65.77-84.7 74.4-93.17 150.24-185.44 222.83-279.96 27.17-35.3 58.9-47.04 101.88-46.32 111.32 1.97 222.7.8 334 .8 15.58 0 34.32-1.8 37.7 17.62 1.5 8.66-7.75 21.66-15.58 28.98-60.67 57.42-122.24 113.85-183.4 170.73-64.02 59.5-129.7 117.55-191.32 179.48-36.8 36.93-77.06 52.63-128.16 48.22-31.6-2.62-63.66-.46-95.45-.46 0-.27 0-.46 0-.64z" class="fil8"/><path d="M24185.45 17428.3c.86 42.6 2.66 85.22 2.4 127.74-.46 91.1-7.32 98.15-88.62 130.64-75.62 30.34-148.2 19.06-219.57-10.92-29.12-12.1-55.76-30.16-83.15-46.22-92-54.35-185.9-65.37-282.35-12.28-17.6 9.66-34.13 20.4-61.76 10.84 0-48.67 1.93-100.05-.7-151.24-2.06-41 13.43-65.1 50.4-83.6 102.83-51.46 205.85-52.18 310.44-8.94a421.46 421.46 0 0163.43 32.5c90.92 57.25 183.2 74.12 279.84 13.55 5.74-3.53 15.2-1.26 29.66-2.07z" class="fil7"/><path d="M9017.14 15842.07c16.58 66.36 3.83 134.34 9.5 184-20.56-48.48-48.78-112.77-51.7-183.73 14.05-.08 28.14-.17 42.2-.27zm12503.5 228.96c0-114.84-.54-229.86.18-344.8.55-75.57 1.4-75.57 81.84-76.92 83.47-1.33 166.04 3.1 246.8 28.2 121.8 37.82 191.95 119.9 215.6 243.77 20.32 106.35 19.9 212.8-.63 318.96-26.6 137.6-104.9 218.7-241.14 244.6-85.9 16.33-173.4 17.05-260.7 13-27.8-1.36-42.05-18.07-41.55-46.32.04-3.97-.28-7.94-.28-11.9-.1-122.9-.1-245.68-.1-368.56 0 0 0 0-.03 0zm.26-1077.1c.06-115.38.06-230.77.06-346.06 0-28.53 13.32-44.7 42.56-45.14 87.53-1.08 174.62-1.35 261.12 18.86 90.87 21.2 146.9 73.5 168.6 164.13 30.38 126.58 27.04 253.07-6.13 377.93-28.9 108.7-99.26 177.32-211.25 203.96-70.6 16.8-141.44 20.3-213.17 18.33-29.8-.82-41.76-17.9-41.76-45.88 0-115.37 0-230.76 0-346.15zm-8310.26 61.4c0-126.94-.55-253.9.35-380.73.3-39.73 10.32-50.1 49.05-49.94 90.97.37 181.62-4.14 272.22 16.9 105.23 24.36 168.06 85.67 187.02 189.86 22.83 125.77 24.55 252.62-2.04 378.02-24.2 114.3-96.3 188.34-206.17 225.8-87.23 29.72-178.77 33.32-269.23 42.72-17.02 1.8-28.36-12.56-29.52-30.08-1.6-23.74-1.8-47.57-1.87-71.32-.14-107.08-.1-214.24-.1-321.23.1 0 .2 0 .24 0zm-10701.7 494.04c0-258.5-.03-516.98 0-775.46 0-27.7-.62-55.6.3-83.4 1.45-45.32 8.92-54.53 57.96-53.9 63.44.9 127 4.6 190.2 10.4 84.3 7.74 148.17 51.8 198.6 118.34 72.3 95.07 101.4 206.48 116.7 321.24 40.67 304.98 37.95 610.5-.12 915.67-9.3 74.84-26.43 148.7-54.14 219.3-54.2 137.78-156.13 216.5-302.05 238.9-3.95.63-7.9 1.1-11.88 1.26-236.57 9.5-192.77 38.65-195-172.7-2.62-246.58-.6-493.14-.6-739.6z" class="fil9"/><path d="M12092.9 15567.52c-4.56 162.42-6.05 345.25-35.7 526.18-16.16 98.3-38.06 194.65-87.68 282.68-25.68 45.6-56.24 86.13-101.07 115.02-100.2 64.47-196.55 54.08-279.2-32.6-64.7-67.8-102.6-150.68-125.8-240.05-27.02-104.1-42.27-210.38-49.45-317.45-16.47-245.94-17.02-492.23.28-738.17 6.9-99.05 21.67-197.37 46.5-293.7 17.97-69.52 46.62-134.35 85.36-195.38 90.7-142.83 328.18-137.6 412.06 11.46 51.38 91.5 80.9 189.35 98.1 291.74 31.64 188.8 35.07 379.3 36.6 590.3z" class="fil10"/><path d="M15722.67 15935.88c81.7-440.68 170.5-863.3 238.4-1289.73 1.67-10.47 11.2-19.6 18.1-31.15 21.12 66.73 234.88 1206.4 246.75 1314.74-19.46 2.08-38.92 5.77-58.28 5.87-142.57.48-285.08.3-444.97.3zm10759.65-12.83c84.63-440.4 173.42-879.9 249.67-1351.3 38.7 134.8 50.64 245.58 70.4 354.66 19.8 109.5 40.7 218.67 61.3 328 21.3 113.24 42.84 226.36 64 339.58 20.47 108.97 40.6 217.94 60.83 326.65-89.43 19.6-398.48 20.95-506.22 2.43z" class="fil9"/><path d="M18191.7 15180.55c0-162.6-.4-325.2.26-487.72.27-69.34 1.36-69.9 74.62-70.33 67.36-.54 134.17-.54 199.8 21.86 84.88 28.88 144.1 81.07 169.52 168.1 8.9 30.33 17.42 61.13 22.07 92.27 25.24 169.38 30.66 338.57-.72 508.4-33.18 179.4-143.82 279.07-318.17 306.06-164.53 25.44-146.44 46.4-147.25-122.35-.68-138.77-.13-277.53-.13-416.3z" class="fil10"/><path d="M11176.96 18577.8c-.04 111.23-1.66 222.37.76 333.52.92 41.7-16.6 67.44-50.37 85.68-24.37 13.27-48.38 28.34-74.37 36.93-101.03 33.2-194.72-8.4-233-107.18-18.47-47.67-29.03-99.03-37.54-149.7-25.33-150.22-22.95-300.45 11.26-449.24 11.58-50.36 28.8-98.94 62.46-140.02 67.7-82.97 222.9-94.43 301.08-20.68 10.33 9.74 17.34 27.08 18.46 41.53 2.7 35.56 1.22 71.42 1.26 107.07.04 87.4 0 174.8 0 262.1z" class="fil9"/><path d="M14098.1 18569.5c0 111.05-1.32 222 .62 332.96.78 44.8-14.5 76.84-53.98 96.6-28.2 14-56.22 30.53-86.33 38.47-93.33 24.57-174.63-15.25-214.04-103.73-12.72-28.72-21.9-59.5-28.76-90.3-36.75-164.66-39.15-330.34-5.28-495.66 8.6-42.16 23.2-84.68 43.43-122.6 61.07-114.4 213.8-143.02 317.52-63.2 21.32 16.34 26.42 38.2 26.5 62.47.32 95.27.27 190.35.36 285.6 0 19.77 0 39.64-.04 59.4z" class="fil10"/><path d="M4671.17 18573.38c0 111.5-1.67 222.9.86 334.23.95 41.56-16.2 66.4-48.87 87.14-30.5 19.33-61.77 36.48-96.92 44.6-95.07 21.94-174.07-17.5-212.93-107.8-12.42-28.87-20.9-60.03-27.4-90.9-37.56-177.5-39.94-354.93 4.73-531.6 6.75-26.82 15.56-53.82 28.24-78.2 62.9-120.43 219.42-151.67 326.7-66.63 20.77 16.45 27.36 37.94 25.55 63.13-.27 3.97.07 7.94.07 11.9 0 111.43 0 222.83 0 334.16zm20487.23-2.98c-7.16 98.14-2.1 206.03-34.43 310.12-14.27 46.05-32.06 89.84-65.64 125.23-72.73 76.83-167.1 77-240.74 1.44-25.35-26-45.16-55.44-54.9-90.74-12.5-45.8-29.68-91.2-35.6-137.97-20.5-162.15-23.97-324.58 11.93-485.47 7.67-34.3 21.08-68.07 36.07-100.13 32.5-69.05 93.63-96.5 165.2-95.78 72.7.72 129.23 36.3 161.7 103.1 26.17 54 41.56 111.42 45.44 171.46 4.12 63.38 7.05 126.76 10.97 198.72zm-12768.46-.9c5.42 99.3 4.47 198.44-22.34 295.4-13.9 50.2-31.2 98.33-67 137.6-74.3 81.44-174.56 80.72-249.18-.36-33.5-36.38-49.83-80.8-63.3-126.5-21.4-72.66-33.22-147.33-32.72-223.17.6-91.28 2.62-182.56 7.14-273.74 3.16-63.84 21.16-124.7 49.52-182.47 33.45-68.17 91.1-99.4 163.37-99.23 77.73.28 136.92 37.3 169.37 109.9 26.13 58.4 42.25 120.05 44.7 183.98 2.2 59.5.44 119.1.44 178.6zm6160.04 16.07c11.48 116.3 4.08 230.3 4.66 344.16.1 7.77-1.8 15.98-4.8 23.02-30.05 71.24-151.66 120.26-223.88 90.92-40.32-16.43-63.03-49.57-72.23-88.47-20.2-85.6-22.13-172.9 1.94-257.95 19.1-67.45 67.76-106.35 138.08-110.96 50.38-3.46 101.08-.74 156.23-.74zm-3231.93-47.57c-2.6 131.8-3.6 238.97-34.16 343.34-12.48 42.52-29.28 82.52-57.7 116.3-73.6 87.3-182.76 87.3-257.06.53-23.53-27.44-41.03-58.5-49.93-93.8-12.54-49.94-30.77-99.4-35.9-150.06-15.05-150.4-18-301.1 12.67-450.6 8.08-39.45 21.5-76.2 39.54-111.67 34.63-68 94.23-96.88 166-95 72.1 1.82 129.34 35.95 161.56 103.66 24.02 50.55 39.5 103.82 43.38 159.9 4.7 67.25 8.8 134.5 11.6 177.4zM9973 18581.04c10.34 122.7 4.34 236.84 4.25 350.95 0 7.57-2 15.87-5.24 22.82-30.72 65.73-143.53 114.03-214.22 92.54-46.83-14.17-73-49.74-82.4-93.26-18.56-85.67-20.95-173.42 2.66-258.48 17.2-62.03 62.05-99.6 127.47-108.97 54.55-7.86 108.8-2.36 167.5-5.6zm10367.16 5.43c10.56 116.74 4.34 231.13 3.93 345.34 0 7.7-2.55 15.9-6 22.77-30.67 60.67-136.25 109.6-203.53 95.8-48.24-9.94-79.63-41.9-90.54-85.24-23.44-93.26-26.5-188.7 4.05-281.32 19.05-57.6 63.37-91.9 123.87-96.42 54.22-4.06 109.02-.9 168.2-.9zM5442.9 18565.8c-4.2-87.22 7-169.83 20.42-252.26 7.74-47.67 25.72-91.1 49.02-133.17 60.7-109.6 241-113.12 309.97.63 25 41.44 39.63 86.77 47.26 133.9 27.33 170 29.35 340.27-1.9 509.92-7.13 38.64-20.97 76.38-35 113.3-12.78 33.77-34.7 62.3-63.26 85.15-70.9 56.6-149.14 53.53-215-8.93-35.54-33.77-56-75.94-69.8-122.6-31.85-107.63-47.1-217.06-41.7-325.95zm18497.52 202.32c0 43.6 1.13 87.22-.18 130.83-3.07 99.58-129.92 182.65-223.9 146.35-39.64-15.27-63.44-46.23-74.1-86.77-22.7-86.04-23.6-172.72.3-258.57 18.9-68.07 65.18-107.44 136.1-113.86 39.36-3.6 79.12-2.53 118.67-4.14 30.8-1.27 42.27 15.8 42.45 43.52.37 47.5.1 95.06.1 142.64.17 0 .4 0 .58 0z" class="fil9"/></g></g></svg>